<?xml version="1.0" encoding="utf-8"?>
<!DOCTYPE svg PUBLIC "-//W3C//DTD SVG 1.1//EN" "http://www.w3.org/Graphics/SVG/1.1/DTD/svg11.dtd">
<svg class="sigma-svg" xmlns="http://www.w3.org/2000/svg" xmlns:xlink="http://www.w3.org/1999/xlink" version="1.1" width="1000px" height="1000px" x="0px" y="0px" style="overflow:hidden; background-color:white"><style>.sigma-node{fill: #CC1121}.c-0{fill: #c6c6c6}.c-1{fill: #E52C3C}.c-2{fill: #E12434}.c-3{fill: #E73141}.c-4{fill: #D31727}.c-5{fill: #DA1E2E}.c-6{fill: #AB0110}.c-7{fill: #D11525}.c-8{fill: #AD0110}.c-9{fill: #B70212}.c-10{fill: #C30818}.c-11{fill: #C70C1C}.c-12{fill: #98000D}.c-13{fill: #96000D}.c-14{fill: #A4010F}.c-15{fill: #CE1323}.c-16{fill: #DC2030}.c-17{fill: #CA0F1F}.c-18{fill: #E83645}.c-19{fill: #D51929}.c-20{fill: #DF2232}.c-21{fill: #A1000E}.c-22{fill: #E32737}.c-23{fill: #B20211}.c-24{fill: #EA3B4A}.sigma-edge{stroke: #959595}</style><g id="sigma-group-edges" class="sigma-group"><line class="sigma-edge" stroke-width="0.4" x1="685.4300600125537" y1="203.69010919945447" x2="634.4524361449932" y2="443.2455935157614"></line><line class="sigma-edge" stroke-width="0.4" x1="685.4300600125537" y1="203.69010919945447" x2="472.546764844353" y2="204.02265134963227"></line><line class="sigma-edge" stroke-width="0.4" x1="634.4524361449932" y1="443.2455935157614" x2="374.85154635319566" y2="442.5367737325589"></line><line class="sigma-edge" stroke-width="0.4" x1="634.4524361449932" y1="443.2455935157614" x2="701.9108756142562" y2="613.3238766408414"></line><line class="sigma-edge" stroke-width="0.4" x1="634.4524361449932" y1="443.2455935157614" x2="654.980365191216" y2="557.1238980755853"></line><line class="sigma-edge" stroke-width="0.4" x1="634.4524361449932" y1="443.2455935157614" x2="489.1868478504978" y2="843.1045845345102"></line><line class="sigma-edge" stroke-width="0.4" x1="634.4524361449932" y1="443.2455935157614" x2="462.32298064779843" y2="591.9099824935773"></line><line class="sigma-edge" stroke-width="0.4" x1="634.4524361449932" y1="443.2455935157614" x2="606.3804327419317" y2="552.2822143578231"></line><line class="sigma-edge" stroke-width="0.4" x1="634.4524361449932" y1="443.2455935157614" x2="378.0221692350474" y2="337.2979086589429"></line><line class="sigma-edge" stroke-width="0.4" x1="634.4524361449932" y1="443.2455935157614" x2="469.0284111778757" y2="520.985901062483"></line><line class="sigma-edge" stroke-width="0.4" x1="634.4524361449932" y1="443.2455935157614" x2="732.5611809004479" y2="531.0753659278204"></line><line class="sigma-edge" stroke-width="0.4" x1="634.4524361449932" y1="443.2455935157614" x2="441.42959932204934" y2="398.69118333213595"></line><line class="sigma-edge" stroke-width="0.4" x1="634.4524361449932" y1="443.2455935157614" x2="118.62291885186926" y2="434.58420557130785"></line><line class="sigma-edge" stroke-width="0.4" x1="634.4524361449932" y1="443.2455935157614" x2="767.8957404554283" y2="668.6675036717011"></line><line class="sigma-edge" stroke-width="0.4" x1="634.4524361449932" y1="443.2455935157614" x2="710.4592955869177" y2="464.3297448162614"></line><line class="sigma-edge" stroke-width="0.4" x1="634.4524361449932" y1="443.2455935157614" x2="645.7326743420124" y2="696.4787273809303"></line><line class="sigma-edge" stroke-width="0.4" x1="634.4524361449932" y1="443.2455935157614" x2="518.191649111564" y2="534.7945251564751"></line><line class="sigma-edge" stroke-width="0.4" x1="634.4524361449932" y1="443.2455935157614" x2="816.1041406565049" y2="601.2833201098041"></line><line class="sigma-edge" stroke-width="0.4" x1="634.4524361449932" y1="443.2455935157614" x2="371.3016322341293" y2="488.53379413824723"></line><line class="sigma-edge" stroke-width="0.4" x1="634.4524361449932" y1="443.2455935157614" x2="533.2712257725155" y2="193.7020791841341"></line><line class="sigma-edge" stroke-width="0.4" x1="634.4524361449932" y1="443.2455935157614" x2="670.9077578420552" y2="640.5042026259016"></line><line class="sigma-edge" stroke-width="0.4" x1="634.4524361449932" y1="443.2455935157614" x2="744.0787963911584" y2="216.62739738312416"></line><line class="sigma-edge" stroke-width="0.4" x1="634.4524361449932" y1="443.2455935157614" x2="727.1016094624882" y2="296.51476620834853"></line><line class="sigma-edge" stroke-width="0.4" x1="634.4524361449932" y1="443.2455935157614" x2="633.72796931782" y2="275.10575585768254"></line><line class="sigma-edge" stroke-width="0.4" x1="634.4524361449932" y1="443.2455935157614" x2="785.5356807815323" y2="268.0427870184755"></line><line class="sigma-edge" stroke-width="0.4" x1="634.4524361449932" y1="443.2455935157614" x2="515.4214264866848" y2="364.4673237984215"></line><line class="sigma-edge" stroke-width="0.4" x1="634.4524361449932" y1="443.2455935157614" x2="874.6549791123937" y2="543.1558402217418"></line><line class="sigma-edge" stroke-width="0.4" x1="634.4524361449932" y1="443.2455935157614" x2="335.5565036740729" y2="552.9371317358085"></line><line class="sigma-edge" stroke-width="0.4" x1="634.4524361449932" y1="443.2455935157614" x2="842.7984178846797" y2="303.3586301729057"></line><line class="sigma-edge" stroke-width="0.4" x1="634.4524361449932" y1="443.2455935157614" x2="874.9817495029556" y2="390.16007863832215"></line><line class="sigma-edge" stroke-width="0.4" x1="634.4524361449932" y1="443.2455935157614" x2="875.0366922146839" y2="439.56175684137355"></line><line class="sigma-edge" stroke-width="0.4" x1="634.4524361449932" y1="443.2455935157614" x2="844.1422389167901" y2="353.8941594529635"></line><line class="sigma-edge" stroke-width="0.4" x1="634.4524361449932" y1="443.2455935157614" x2="881.3770811481309" y2="489.8677587808597"></line><line class="sigma-edge" stroke-width="0.4" x1="374.85154635319566" y1="442.5367737325589" x2="243.25722076887217" y2="477.329951839467"></line><line class="sigma-edge" stroke-width="0.4" x1="374.85154635319566" y1="442.5367737325589" x2="489.1868478504978" y2="843.1045845345102"></line><line class="sigma-edge" stroke-width="0.4" x1="374.85154635319566" y1="442.5367737325589" x2="462.32298064779843" y2="591.9099824935773"></line><line class="sigma-edge" stroke-width="0.4" x1="374.85154635319566" y1="442.5367737325589" x2="469.0284111778757" y2="520.985901062483"></line><line class="sigma-edge" stroke-width="0.4" x1="374.85154635319566" y1="442.5367737325589" x2="118.62291885186926" y2="434.58420557130785"></line><line class="sigma-edge" stroke-width="0.4" x1="374.85154635319566" y1="442.5367737325589" x2="466.73054048033197" y2="717.3526290179757"></line><line class="sigma-edge" stroke-width="0.4" x1="374.85154635319566" y1="442.5367737325589" x2="331.44059026693174" y2="645.6380462644349"></line><line class="sigma-edge" stroke-width="0.4" x1="374.85154635319566" y1="442.5367737325589" x2="394.82910153022476" y2="268.3856793862818"></line><line class="sigma-edge" stroke-width="0.4" x1="374.85154635319566" y1="442.5367737325589" x2="364.5524774700368" y2="231.00230092184893"></line><line class="sigma-edge" stroke-width="0.4" x1="701.9108756142562" y1="613.3238766408414" x2="654.980365191216" y2="557.1238980755853"></line><line class="sigma-edge" stroke-width="0.4" x1="701.9108756142562" y1="613.3238766408414" x2="526.0045612308262" y2="687.2774788721796"></line><line class="sigma-edge" stroke-width="0.4" x1="701.9108756142562" y1="613.3238766408414" x2="710.4592955869177" y2="464.3297448162614"></line><line class="sigma-edge" stroke-width="0.4" x1="701.9108756142562" y1="613.3238766408414" x2="331.44059026693174" y2="645.6380462644349"></line><line class="sigma-edge" stroke-width="0.4" x1="654.980365191216" y1="557.1238980755853" x2="489.1868478504978" y2="843.1045845345102"></line><line class="sigma-edge" stroke-width="0.4" x1="654.980365191216" y1="557.1238980755853" x2="526.0045612308262" y2="687.2774788721796"></line><line class="sigma-edge" stroke-width="0.4" x1="654.980365191216" y1="557.1238980755853" x2="518.191649111564" y2="534.7945251564751"></line><line class="sigma-edge" stroke-width="0.4" x1="654.980365191216" y1="557.1238980755853" x2="577.754221530432" y2="342.02908661332503"></line><line class="sigma-edge" stroke-width="0.4" x1="243.25722076887217" y1="477.329951839467" x2="205.67553809455086" y2="493.7755576563756"></line><line class="sigma-edge" stroke-width="0.4" x1="243.25722076887217" y1="477.329951839467" x2="441.42959932204934" y2="398.69118333213595"></line><line class="sigma-edge" stroke-width="0.4" x1="243.25722076887217" y1="477.329951839467" x2="118.62291885186926" y2="434.58420557130785"></line><line class="sigma-edge" stroke-width="0.4" x1="243.25722076887217" y1="477.329951839467" x2="518.191649111564" y2="534.7945251564751"></line><line class="sigma-edge" stroke-width="0.4" x1="243.25722076887217" y1="477.329951839467" x2="278.7325642803803" y2="560.6452486172478"></line><line class="sigma-edge" stroke-width="0.4" x1="243.25722076887217" y1="477.329951839467" x2="515.4214264866848" y2="364.4673237984215"></line><line class="sigma-edge" stroke-width="0.4" x1="489.1868478504978" y1="843.1045845345102" x2="469.0284111778757" y2="520.985901062483"></line><line class="sigma-edge" stroke-width="0.4" x1="489.1868478504978" y1="843.1045845345102" x2="564.2123506830366" y2="832.4317349561015"></line><line class="sigma-edge" stroke-width="0.4" x1="489.1868478504978" y1="843.1045845345102" x2="286.2462540908534" y2="682.1206233991868"></line><line class="sigma-edge" stroke-width="0.4" x1="489.1868478504978" y1="843.1045845345102" x2="335.5565036740729" y2="552.9371317358085"></line><line class="sigma-edge" stroke-width="0.4" x1="489.1868478504978" y1="843.1045845345102" x2="419.56977117251915" y2="828.5956730003911"></line><line class="sigma-edge" stroke-width="0.4" x1="462.32298064779843" y1="591.9099824935773" x2="526.0045612308262" y2="687.2774788721796"></line><line class="sigma-edge" stroke-width="0.4" x1="462.32298064779843" y1="591.9099824935773" x2="518.191649111564" y2="534.7945251564751"></line><line class="sigma-edge" stroke-width="0.4" x1="462.32298064779843" y1="591.9099824935773" x2="201.72929933707184" y2="404.18324569695994"></line><line class="sigma-edge" stroke-width="0.4" x1="462.32298064779843" y1="591.9099824935773" x2="286.2462540908534" y2="682.1206233991868"></line><line class="sigma-edge" stroke-width="0.4" x1="462.32298064779843" y1="591.9099824935773" x2="335.5565036740729" y2="552.9371317358085"></line><line class="sigma-edge" stroke-width="0.4" x1="606.3804327419317" y1="552.2822143578231" x2="441.42959932204934" y2="398.69118333213595"></line><line class="sigma-edge" stroke-width="0.4" x1="606.3804327419317" y1="552.2822143578231" x2="577.754221530432" y2="342.02908661332503"></line><line class="sigma-edge" stroke-width="0.4" x1="606.3804327419317" y1="552.2822143578231" x2="466.73054048033197" y2="717.3526290179757"></line><line class="sigma-edge" stroke-width="0.4" x1="606.3804327419317" y1="552.2822143578231" x2="231.50569919515982" y2="635.3908814150582"></line><line class="sigma-edge" stroke-width="0.4" x1="606.3804327419317" y1="552.2822143578231" x2="331.44059026693174" y2="645.6380462644349"></line><line class="sigma-edge" stroke-width="0.4" x1="378.0221692350474" y1="337.2979086589429" x2="441.42959932204934" y2="398.69118333213595"></line><line class="sigma-edge" stroke-width="0.4" x1="378.0221692350474" y1="337.2979086589429" x2="274.7317359081643" y2="207.22986277466157"></line><line class="sigma-edge" stroke-width="0.4" x1="378.0221692350474" y1="337.2979086589429" x2="222.01337153952284" y2="377.0725804106486"></line><line class="sigma-edge" stroke-width="0.4" x1="378.0221692350474" y1="337.2979086589429" x2="278.7325642803803" y2="560.6452486172478"></line><line class="sigma-edge" stroke-width="0.4" x1="378.0221692350474" y1="337.2979086589429" x2="154.71587536724172" y2="508.31693310372646"></line><line class="sigma-edge" stroke-width="0.4" x1="378.0221692350474" y1="337.2979086589429" x2="197.38061145262049" y2="307.28531363313266"></line><line class="sigma-edge" stroke-width="0.4" x1="205.67553809455086" y1="493.7755576563756" x2="154.71587536724172" y2="508.31693310372646"></line><line class="sigma-edge" stroke-width="0.4" x1="469.0284111778757" y1="520.985901062483" x2="526.0045612308262" y2="687.2774788721796"></line><line class="sigma-edge" stroke-width="0.4" x1="469.0284111778757" y1="520.985901062483" x2="407.4459670832714" y2="766.0799326075974"></line><line class="sigma-edge" stroke-width="0.4" x1="469.0284111778757" y1="520.985901062483" x2="577.754221530432" y2="342.02908661332503"></line><line class="sigma-edge" stroke-width="0.4" x1="469.0284111778757" y1="520.985901062483" x2="466.73054048033197" y2="717.3526290179757"></line><line class="sigma-edge" stroke-width="0.4" x1="469.0284111778757" y1="520.985901062483" x2="452.4656201623115" y2="274.95646707530966"></line><line class="sigma-edge" stroke-width="0.4" x1="469.0284111778757" y1="520.985901062483" x2="331.44059026693174" y2="645.6380462644349"></line><line class="sigma-edge" stroke-width="0.4" x1="469.0284111778757" y1="520.985901062483" x2="394.82910153022476" y2="268.3856793862818"></line><line class="sigma-edge" stroke-width="0.4" x1="469.0284111778757" y1="520.985901062483" x2="154.71587536724172" y2="508.31693310372646"></line><line class="sigma-edge" stroke-width="0.4" x1="732.5611809004479" y1="531.0753659278204" x2="118.62291885186926" y2="434.58420557130785"></line><line class="sigma-edge" stroke-width="0.4" x1="732.5611809004479" y1="531.0753659278204" x2="518.191649111564" y2="534.7945251564751"></line><line class="sigma-edge" stroke-width="0.4" x1="732.5611809004479" y1="531.0753659278204" x2="326.7297402785902" y2="681.5194364102816"></line><line class="sigma-edge" stroke-width="0.4" x1="732.5611809004479" y1="531.0753659278204" x2="577.754221530432" y2="342.02908661332503"></line><line class="sigma-edge" stroke-width="0.4" x1="732.5611809004479" y1="531.0753659278204" x2="201.72929933707184" y2="404.18324569695994"></line><line class="sigma-edge" stroke-width="0.4" x1="732.5611809004479" y1="531.0753659278204" x2="452.4656201623115" y2="274.95646707530966"></line><line class="sigma-edge" stroke-width="0.4" x1="732.5611809004479" y1="531.0753659278204" x2="670.9077578420552" y2="640.5042026259016"></line><line class="sigma-edge" stroke-width="0.4" x1="732.5611809004479" y1="531.0753659278204" x2="222.01337153952284" y2="377.0725804106486"></line><line class="sigma-edge" stroke-width="0.4" x1="732.5611809004479" y1="531.0753659278204" x2="581.0837597791451" y2="730.0363303767956"></line><line class="sigma-edge" stroke-width="0.4" x1="732.5611809004479" y1="531.0753659278204" x2="472.546764844353" y2="204.02265134963227"></line><line class="sigma-edge" stroke-width="0.4" x1="732.5611809004479" y1="531.0753659278204" x2="623.1488889187558" y2="166.22983535696187"></line><line class="sigma-edge" stroke-width="0.4" x1="732.5611809004479" y1="531.0753659278204" x2="252.05802108260883" y2="748.1544877940056"></line><line class="sigma-edge" stroke-width="0.4" x1="441.42959932204934" y1="398.69118333213595" x2="118.62291885186926" y2="434.58420557130785"></line><line class="sigma-edge" stroke-width="0.4" x1="441.42959932204934" y1="398.69118333213595" x2="526.0045612308262" y2="687.2774788721796"></line><line class="sigma-edge" stroke-width="0.4" x1="441.42959932204934" y1="398.69118333213595" x2="333.50445412313377" y2="364.02374187286387"></line><line class="sigma-edge" stroke-width="0.4" x1="441.42959932204934" y1="398.69118333213595" x2="371.3016322341293" y2="488.53379413824723"></line><line class="sigma-edge" stroke-width="0.4" x1="441.42959932204934" y1="398.69118333213595" x2="201.72929933707184" y2="404.18324569695994"></line><line class="sigma-edge" stroke-width="0.4" x1="441.42959932204934" y1="398.69118333213595" x2="452.4656201623115" y2="274.95646707530966"></line><line class="sigma-edge" stroke-width="0.4" x1="441.42959932204934" y1="398.69118333213595" x2="331.44059026693174" y2="645.6380462644349"></line><line class="sigma-edge" stroke-width="0.4" x1="441.42959932204934" y1="398.69118333213595" x2="222.01337153952284" y2="377.0725804106486"></line><line class="sigma-edge" stroke-width="0.4" x1="441.42959932204934" y1="398.69118333213595" x2="394.82910153022476" y2="268.3856793862818"></line><line class="sigma-edge" stroke-width="0.4" x1="441.42959932204934" y1="398.69118333213595" x2="472.546764844353" y2="204.02265134963227"></line><line class="sigma-edge" stroke-width="0.4" x1="118.62291885186926" y1="434.58420557130785" x2="333.50445412313377" y2="364.02374187286387"></line><line class="sigma-edge" stroke-width="0.4" x1="118.62291885186926" y1="434.58420557130785" x2="518.191649111564" y2="534.7945251564751"></line><line class="sigma-edge" stroke-width="0.4" x1="118.62291885186926" y1="434.58420557130785" x2="326.7297402785902" y2="681.5194364102816"></line><line class="sigma-edge" stroke-width="0.4" x1="118.62291885186926" y1="434.58420557130785" x2="371.3016322341293" y2="488.53379413824723"></line><line class="sigma-edge" stroke-width="0.4" x1="118.62291885186926" y1="434.58420557130785" x2="274.7317359081643" y2="207.22986277466157"></line><line class="sigma-edge" stroke-width="0.4" x1="118.62291885186926" y1="434.58420557130785" x2="452.4656201623115" y2="274.95646707530966"></line><line class="sigma-edge" stroke-width="0.4" x1="118.62291885186926" y1="434.58420557130785" x2="331.44059026693174" y2="645.6380462644349"></line><line class="sigma-edge" stroke-width="0.4" x1="118.62291885186926" y1="434.58420557130785" x2="222.01337153952284" y2="377.0725804106486"></line><line class="sigma-edge" stroke-width="0.4" x1="118.62291885186926" y1="434.58420557130785" x2="394.82910153022476" y2="268.3856793862818"></line><line class="sigma-edge" stroke-width="0.4" x1="118.62291885186926" y1="434.58420557130785" x2="472.546764844353" y2="204.02265134963227"></line><line class="sigma-edge" stroke-width="0.4" x1="118.62291885186926" y1="434.58420557130785" x2="515.4214264866848" y2="364.4673237984215"></line><line class="sigma-edge" stroke-width="0.4" x1="118.62291885186926" y1="434.58420557130785" x2="335.5565036740729" y2="552.9371317358085"></line><line class="sigma-edge" stroke-width="0.4" x1="118.62291885186926" y1="434.58420557130785" x2="252.05802108260883" y2="748.1544877940056"></line><line class="sigma-edge" stroke-width="0.4" x1="118.62291885186926" y1="434.58420557130785" x2="197.38061145262049" y2="307.28531363313266"></line><line class="sigma-edge" stroke-width="0.4" x1="197.69139850886143" y1="254.4531790028316" x2="201.72929933707184" y2="404.18324569695994"></line><line class="sigma-edge" stroke-width="0.4" x1="197.69139850886143" y1="254.4531790028316" x2="335.5565036740729" y2="552.9371317358085"></line><line class="sigma-edge" stroke-width="0.4" x1="197.69139850886143" y1="254.4531790028316" x2="344.0245134653477" y2="157.2268248099952"></line><line class="sigma-edge" stroke-width="0.4" x1="767.8957404554283" y1="668.6675036717011" x2="581.0837597791451" y2="730.0363303767956"></line><line class="sigma-edge" stroke-width="0.4" x1="767.8957404554283" y1="668.6675036717011" x2="602.1354660925335" y2="810.7200534215191"></line><line class="sigma-edge" stroke-width="0.4" x1="526.0045612308262" y1="687.2774788721796" x2="645.7326743420124" y2="696.4787273809303"></line><line class="sigma-edge" stroke-width="0.4" x1="526.0045612308262" y1="687.2774788721796" x2="545.5721712414131" y2="643.0691747741869"></line><line class="sigma-edge" stroke-width="0.4" x1="526.0045612308262" y1="687.2774788721796" x2="278.7325642803803" y2="560.6452486172478"></line><line class="sigma-edge" stroke-width="0.4" x1="710.4592955869177" y1="464.3297448162614" x2="623.1488889187558" y2="166.22983535696187"></line><line class="sigma-edge" stroke-width="0.4" x1="710.4592955869177" y1="464.3297448162614" x2="515.4214264866848" y2="364.4673237984215"></line><line class="sigma-edge" stroke-width="0.4" x1="710.4592955869177" y1="464.3297448162614" x2="602.1354660925335" y2="810.7200534215191"></line><line class="sigma-edge" stroke-width="0.4" x1="333.50445412313377" y1="364.02374187286387" x2="518.191649111564" y2="534.7945251564751"></line><line class="sigma-edge" stroke-width="0.4" x1="333.50445412313377" y1="364.02374187286387" x2="231.50569919515982" y2="635.3908814150582"></line><line class="sigma-edge" stroke-width="0.4" x1="333.50445412313377" y1="364.02374187286387" x2="331.44059026693174" y2="645.6380462644349"></line><line class="sigma-edge" stroke-width="0.4" x1="333.50445412313377" y1="364.02374187286387" x2="472.546764844353" y2="204.02265134963227"></line><line class="sigma-edge" stroke-width="0.4" x1="333.50445412313377" y1="364.02374187286387" x2="633.72796931782" y2="275.10575585768254"></line><line class="sigma-edge" stroke-width="0.4" x1="645.7326743420124" y1="696.4787273809303" x2="331.44059026693174" y2="645.6380462644349"></line><line class="sigma-edge" stroke-width="0.4" x1="645.7326743420124" y1="696.4787273809303" x2="602.1354660925335" y2="810.7200534215191"></line><line class="sigma-edge" stroke-width="0.4" x1="518.191649111564" y1="534.7945251564751" x2="407.4459670832714" y2="766.0799326075974"></line><line class="sigma-edge" stroke-width="0.4" x1="518.191649111564" y1="534.7945251564751" x2="466.73054048033197" y2="717.3526290179757"></line><line class="sigma-edge" stroke-width="0.4" x1="518.191649111564" y1="534.7945251564751" x2="735.1326799818858" y2="747.0726402294106"></line><line class="sigma-edge" stroke-width="0.4" x1="518.191649111564" y1="534.7945251564751" x2="780.0666055593324" y2="488.56617148978495"></line><line class="sigma-edge" stroke-width="0.4" x1="518.191649111564" y1="534.7945251564751" x2="452.4656201623115" y2="274.95646707530966"></line><line class="sigma-edge" stroke-width="0.4" x1="518.191649111564" y1="534.7945251564751" x2="231.50569919515982" y2="635.3908814150582"></line><line class="sigma-edge" stroke-width="0.4" x1="518.191649111564" y1="534.7945251564751" x2="331.44059026693174" y2="645.6380462644349"></line><line class="sigma-edge" stroke-width="0.4" x1="518.191649111564" y1="534.7945251564751" x2="335.5565036740729" y2="552.9371317358085"></line><line class="sigma-edge" stroke-width="0.4" x1="816.1041406565049" y1="601.2833201098041" x2="581.0837597791451" y2="730.0363303767956"></line><line class="sigma-edge" stroke-width="0.4" x1="326.7297402785902" y1="681.5194364102816" x2="602.1354660925335" y2="810.7200534215191"></line><line class="sigma-edge" stroke-width="0.4" x1="371.3016322341293" y1="488.53379413824723" x2="222.01337153952284" y2="377.0725804106486"></line><line class="sigma-edge" stroke-width="0.4" x1="371.3016322341293" y1="488.53379413824723" x2="252.05802108260883" y2="748.1544877940056"></line><line class="sigma-edge" stroke-width="0.4" x1="407.4459670832714" y1="766.0799326075974" x2="602.1354660925335" y2="810.7200534215191"></line><line class="sigma-edge" stroke-width="0.4" x1="407.4459670832714" y1="766.0799326075974" x2="335.5565036740729" y2="552.9371317358085"></line><line class="sigma-edge" stroke-width="0.4" x1="274.7317359081643" y1="207.22986277466157" x2="201.72929933707184" y2="404.18324569695994"></line><line class="sigma-edge" stroke-width="0.4" x1="274.7317359081643" y1="207.22986277466157" x2="452.4656201623115" y2="274.95646707530966"></line><line class="sigma-edge" stroke-width="0.4" x1="274.7317359081643" y1="207.22986277466157" x2="472.546764844353" y2="204.02265134963227"></line><line class="sigma-edge" stroke-width="0.4" x1="577.754221530432" y1="342.02908661332503" x2="335.5565036740729" y2="552.9371317358085"></line><line class="sigma-edge" stroke-width="0.4" x1="577.754221530432" y1="342.02908661332503" x2="578.2987834557332" y2="186.2931882085084"></line><line class="sigma-edge" stroke-width="0.4" x1="466.73054048033197" y1="717.3526290179757" x2="602.1354660925335" y2="810.7200534215191"></line><line class="sigma-edge" stroke-width="0.4" x1="466.73054048033197" y1="717.3526290179757" x2="335.5565036740729" y2="552.9371317358085"></line><line class="sigma-edge" stroke-width="0.4" x1="784.6956462556753" y1="713.6157367864018" x2="735.1326799818858" y2="747.0726402294106"></line><line class="sigma-edge" stroke-width="0.4" x1="784.6956462556753" y1="713.6157367864018" x2="670.9077578420552" y2="640.5042026259016"></line><line class="sigma-edge" stroke-width="0.4" x1="735.1326799818858" y1="747.0726402294106" x2="780.0666055593324" y2="488.56617148978495"></line><line class="sigma-edge" stroke-width="0.4" x1="533.2712257725155" y1="193.7020791841341" x2="344.0245134653477" y2="157.2268248099952"></line><line class="sigma-edge" stroke-width="0.4" x1="533.2712257725155" y1="193.7020791841341" x2="197.38061145262049" y2="307.28531363313266"></line><line class="sigma-edge" stroke-width="0.4" x1="545.5721712414131" y1="643.0691747741869" x2="670.9077578420552" y2="640.5042026259016"></line><line class="sigma-edge" stroke-width="0.4" x1="545.5721712414131" y1="643.0691747741869" x2="252.05802108260883" y2="748.1544877940056"></line><line class="sigma-edge" stroke-width="0.4" x1="564.2123506830366" y1="832.4317349561015" x2="602.1354660925335" y2="810.7200534215191"></line><line class="sigma-edge" stroke-width="0.4" x1="780.0666055593324" y1="488.56617148978495" x2="727.1016094624882" y2="296.51476620834853"></line><line class="sigma-edge" stroke-width="0.4" x1="780.0666055593324" y1="488.56617148978495" x2="633.72796931782" y2="275.10575585768254"></line><line class="sigma-edge" stroke-width="0.4" x1="452.4656201623115" y1="274.95646707530966" x2="633.72796931782" y2="275.10575585768254"></line><line class="sigma-edge" stroke-width="0.4" x1="452.4656201623115" y1="274.95646707530966" x2="425.7978373513252" y2="156.89541546548992"></line><line class="sigma-edge" stroke-width="0.4" x1="670.9077578420552" y1="640.5042026259016" x2="581.0837597791451" y2="730.0363303767956"></line><line class="sigma-edge" stroke-width="0.4" x1="231.50569919515982" y1="635.3908814150582" x2="278.7325642803803" y2="560.6452486172478"></line><line class="sigma-edge" stroke-width="0.4" x1="231.50569919515982" y1="635.3908814150582" x2="335.5565036740729" y2="552.9371317358085"></line><line class="sigma-edge" stroke-width="0.4" x1="331.44059026693174" y1="645.6380462644349" x2="278.7325642803803" y2="560.6452486172478"></line><line class="sigma-edge" stroke-width="0.4" x1="331.44059026693174" y1="645.6380462644349" x2="335.5565036740729" y2="552.9371317358085"></line><line class="sigma-edge" stroke-width="0.4" x1="331.44059026693174" y1="645.6380462644349" x2="357.0084348096769" y2="758.2233460590536"></line><line class="sigma-edge" stroke-width="0.4" x1="222.01337153952284" y1="377.0725804106486" x2="278.7325642803803" y2="560.6452486172478"></line><line class="sigma-edge" stroke-width="0.4" x1="581.0837597791451" y1="730.0363303767956" x2="278.7325642803803" y2="560.6452486172478"></line><line class="sigma-edge" stroke-width="0.4" x1="394.82910153022476" y1="268.3856793862818" x2="515.4214264866848" y2="364.4673237984215"></line><line class="sigma-edge" stroke-width="0.4" x1="394.82910153022476" y1="268.3856793862818" x2="578.2987834557332" y2="186.2931882085084"></line><line class="sigma-edge" stroke-width="0.4" x1="286.2462540908534" y1="682.1206233991868" x2="278.7325642803803" y2="560.6452486172478"></line><line class="sigma-edge" stroke-width="0.4" x1="278.7325642803803" y1="560.6452486172478" x2="515.4214264866848" y2="364.4673237984215"></line><line class="sigma-edge" stroke-width="0.4" x1="278.7325642803803" y1="560.6452486172478" x2="197.38061145262049" y2="307.28531363313266"></line><line class="sigma-edge" stroke-width="0.4" x1="744.0787963911584" y1="216.62739738312416" x2="633.72796931782" y2="275.10575585768254"></line><line class="sigma-edge" stroke-width="0.4" x1="744.0787963911584" y1="216.62739738312416" x2="578.2987834557332" y2="186.2931882085084"></line><line class="sigma-edge" stroke-width="0.4" x1="472.546764844353" y1="204.02265134963227" x2="727.1016094624882" y2="296.51476620834853"></line><line class="sigma-edge" stroke-width="0.4" x1="472.546764844353" y1="204.02265134963227" x2="633.72796931782" y2="275.10575585768254"></line><line class="sigma-edge" stroke-width="0.4" x1="472.546764844353" y1="204.02265134963227" x2="425.7978373513252" y2="156.89541546548992"></line><line class="sigma-edge" stroke-width="0.4" x1="727.1016094624882" y1="296.51476620834853" x2="633.72796931782" y2="275.10575585768254"></line><line class="sigma-edge" stroke-width="0.4" x1="364.5524774700368" y1="231.00230092184893" x2="425.7978373513252" y2="156.89541546548992"></line><line class="sigma-edge" stroke-width="0.4" x1="623.1488889187558" y1="166.22983535696187" x2="425.7978373513252" y2="156.89541546548992"></line><line class="sigma-edge" stroke-width="0.4" x1="633.72796931782" y1="275.10575585768254" x2="785.5356807815323" y2="268.0427870184755"></line><line class="sigma-edge" stroke-width="0.4" x1="633.72796931782" y1="275.10575585768254" x2="578.2987834557332" y2="186.2931882085084"></line><line class="sigma-edge" stroke-width="0.4" x1="335.5565036740729" y1="552.9371317358085" x2="154.71587536724172" y2="508.31693310372646"></line><line class="sigma-edge" stroke-width="0.4" x1="357.0084348096769" y1="758.2233460590536" x2="419.56977117251915" y2="828.5956730003911"></line></g><g id="sigma-group-nodes" class="sigma-group"><circle class="sigma-node" cx="670.9077578420552" cy="640.5042026259016" r="6.741947384615385" type="target"></circle><circle class="sigma-node c-0" cx="581.0837597791451" cy="730.0363303767956" r="6.741947384615385" type="target"></circle><circle class="sigma-node c-0" cx="407.4459670832714" cy="766.0799326075974" r="6.51076923076923" type="target"></circle><circle class="sigma-node c-0" cx="466.73054048033197" cy="717.3526290179757" r="6.956398692307693" type="target"></circle><circle class="sigma-node c-0" cx="201.72929933707184" cy="404.18324569695994" r="6.741947384615385" type="target"></circle><circle class="sigma-node c-1" cx="462.32298064779843" cy="591.9099824935773" r="7.155652461538462" type="target"></circle><circle class="sigma-node c-2" cx="515.4214264866848" cy="364.4673237984215" r="6.956398692307693" type="target"></circle><circle class="sigma-node c-0" cx="364.5524774700368" cy="231.00230092184893" r="6.012307692307692" type="target"></circle><circle class="sigma-node c-0" cx="472.546764844353" cy="204.02265134963227" r="7.515738307692309" type="target"></circle><circle class="sigma-node c-3" cx="732.5611809004479" cy="531.0753659278204" r="8.121340692307692" type="target"></circle><circle class="sigma-node c-0" cx="526.0045612308262" cy="687.2774788721796" r="7.341538461538462" type="target"></circle><circle class="sigma-node c-0" cx="326.7297402785902" cy="681.5194364102816" r="6.2635496153846155" type="target"></circle><circle class="sigma-node c-4" cx="118.62291885186926" cy="434.58420557130785" r="8.84438130769231" type="target"></circle><circle class="sigma-node c-0" cx="452.4656201623115" cy="274.95646707530966" r="7.341538461538462" type="target"></circle><circle class="sigma-node c-5" cx="710.4592955869177" cy="464.3297448162614" r="6.741947384615385" type="target"></circle><circle class="sigma-node c-6" cx="374.85154635319566" cy="442.5367737325589" r="7.679696153846154" type="target"></circle><circle class="sigma-node c-2" cx="874.9817495029556" cy="390.16007863832215" r="5.846153846153846" type="target"></circle><circle class="sigma-node c-0" cx="231.50569919515982" cy="635.3908814150582" r="6.741947384615385" type="target"></circle><circle class="sigma-node c-7" cx="441.42959932204934" cy="398.69118333213595" r="8.25471169230769" type="target"></circle><circle class="sigma-node c-7" cx="578.2987834557332" cy="186.2931882085084" r="6.51076923076923" type="target"></circle><circle class="sigma-node c-8" cx="881.3770811481309" cy="489.8677587808597" r="5.846153846153846" type="target"></circle><circle class="sigma-node c-9" cx="425.7978373513252" cy="156.89541546548992" r="6.51076923076923" type="target"></circle><circle class="sigma-node c-10" cx="844.1422389167901" cy="353.8941594529635" r="5.846153846153846" type="target"></circle><circle class="sigma-node c-11" cx="875.0366922146839" cy="439.56175684137355" r="5.846153846153846" type="target"></circle><circle class="sigma-node c-12" cx="633.72796931782" cy="275.10575585768254" r="7.515738307692309" type="target"></circle><circle class="sigma-node c-13" cx="727.1016094624882" cy="296.51476620834853" r="6.51076923076923" type="target"></circle><circle class="sigma-node c-14" cx="785.5356807815323" cy="268.0427870184755" r="6.012307692307692" type="target"></circle><circle class="sigma-node c-0" cx="252.05802108260883" cy="748.1544877940056" r="6.51076923076923" type="target"></circle><circle class="sigma-node c-15" cx="545.5721712414131" cy="643.0691747741869" r="7.648165" type="target"></circle><circle class="sigma-node c-16" cx="278.7325642803803" cy="560.6452486172478" r="7.679696153846154" type="target"></circle><circle class="sigma-node c-17" cx="816.1041406565049" cy="601.2833201098041" r="6.012307692307692" type="target"></circle><circle class="sigma-node c-18" cx="489.1868478504978" cy="843.1045845345102" r="7.341538461538462" type="target"></circle><circle class="sigma-node c-15" cx="874.6549791123937" cy="543.1558402217418" r="5.846153846153846" type="target"></circle><circle class="sigma-node c-3" cx="744.0787963911584" cy="216.62739738312416" r="6.2635496153846155" type="target"></circle><circle class="sigma-node c-19" cx="274.7317359081643" cy="207.22986277466157" r="6.741947384615385" type="target"></circle><circle class="sigma-node c-0" cx="780.0666055593324" cy="488.56617148978495" r="6.51076923076923" type="target"></circle><circle class="sigma-node c-0" cx="394.82910153022476" cy="268.3856793862818" r="6.956398692307693" type="target"></circle><circle class="sigma-node c-20" cx="333.50445412313377" cy="364.02374187286387" r="7.155652461538462" type="target"></circle><circle class="sigma-node c-0" cx="419.56977117251915" cy="828.5956730003911" r="6.012307692307692" type="target"></circle><circle class="sigma-node c-0" cx="331.44059026693174" cy="645.6380462644349" r="7.981555461538462" type="target"></circle><circle class="sigma-node c-10" cx="469.0284111778757" cy="520.985901062483" r="7.834627692307692" type="target"></circle><circle class="sigma-node c-0" cx="222.01337153952284" cy="377.0725804106486" r="6.956398692307693" type="target"></circle><circle class="sigma-node c-0" cx="154.71587536724172" cy="508.31693310372646" r="6.51076923076923" type="target"></circle><circle class="sigma-node c-0" cx="243.25722076887217" cy="477.329951839467" r="7.155652461538462" type="target"></circle><circle class="sigma-node c-4" cx="335.5565036740729" cy="552.9371317358085" r="7.981555461538462" type="target"></circle><circle class="sigma-node c-16" cx="518.191649111564" cy="534.7945251564751" r="8.382292230769231" type="target"></circle><circle class="sigma-node c-1" cx="735.1326799818858" cy="747.0726402294106" r="6.2635496153846155" type="target"></circle><circle class="sigma-node c-3" cx="767.8957404554283" cy="668.6675036717011" r="6.2635496153846155" type="target"></circle><circle class="sigma-node c-21" cx="645.7326743420124" cy="696.4787273809303" r="6.51076923076923" type="target"></circle><circle class="sigma-node c-5" cx="371.3016322341293" cy="488.53379413824723" r="6.741947384615385" type="target"></circle><circle class="sigma-node c-0" cx="784.6956462556753" cy="713.6157367864018" r="6.012307692307692" type="target"></circle><circle class="sigma-node c-0" cx="344.0245134653477" cy="157.2268248099952" r="6.012307692307692" type="target"></circle><circle class="sigma-node c-0" cx="564.2123506830366" cy="832.4317349561015" r="6.012307692307692" type="target"></circle><circle class="sigma-node c-0" cx="286.2462540908534" cy="682.1206233991868" r="6.2635496153846155" type="target"></circle><circle class="sigma-node c-0" cx="634.4524361449932" cy="443.2455935157614" r="10" type="target"></circle><circle class="sigma-node c-0" cx="577.754221530432" cy="342.02908661332503" r="6.956398692307693" type="target"></circle><circle class="sigma-node c-22" cx="357.0084348096769" cy="758.2233460590536" r="6.012307692307692" type="target"></circle><circle class="sigma-node c-16" cx="602.1354660925335" cy="810.7200534215191" r="7.155652461538462" type="target"></circle><circle class="sigma-node c-18" cx="654.980365191216" cy="557.1238980755853" r="6.956398692307693" type="target"></circle><circle class="sigma-node c-0" cx="197.38061145262049" cy="307.28531363313266" r="6.51076923076923" type="target"></circle><circle class="sigma-node c-1" cx="606.3804327419317" cy="552.2822143578231" r="6.956398692307693" type="target"></circle><circle class="sigma-node c-23" cx="842.7984178846797" cy="303.3586301729057" r="5.846153846153846" type="target"></circle><circle class="sigma-node c-2" cx="378.0221692350474" cy="337.2979086589429" r="7.155652461538462" type="target"></circle><circle class="sigma-node c-20" cx="701.9108756142562" cy="613.3238766408414" r="6.741947384615385" type="target"></circle><circle class="sigma-node c-16" cx="685.4300600125537" cy="203.69010919945447" r="6.012307692307692" type="target"></circle><circle class="sigma-node c-2" cx="205.67553809455086" cy="493.7755576563756" r="6.012307692307692" type="target"></circle><circle class="sigma-node c-0" cx="623.1488889187558" cy="166.22983535696187" r="6.2635496153846155" type="target"></circle><circle class="sigma-node c-3" cx="197.69139850886143" cy="254.4531790028316" r="6.2635496153846155" type="target"></circle><circle class="sigma-node c-24" cx="533.2712257725155" cy="193.7020791841341" r="6.2635496153846155" type="target"></circle></g><g id="sigma-group-labels" class="sigma-group"><text data-label-target="308" class="sigma-label" font-size="11" font-family="arial" fill="#000" x="681" y="644">ANXA5</text><text data-label-target="351" class="sigma-label" font-size="11" font-family="arial" fill="#000" x="591" y="734">APP</text><text data-label-target="408" class="sigma-label" font-size="11" font-family="arial" fill="#000" x="417" y="770">ARRB1</text><text data-label-target="409" class="sigma-label" font-size="11" font-family="arial" fill="#000" x="477" y="721">ARRB2</text><text data-label-target="571" class="sigma-label" font-size="11" font-family="arial" fill="#000" x="211" y="408">BACH1</text><text data-label-target="580" class="sigma-label" font-size="11" font-family="arial" fill="#000" x="472" y="596">BARD1</text><text data-label-target="864" class="sigma-label" font-size="11" font-family="arial" fill="#000" x="525" y="368">RUNX3</text><text data-label-target="1315" class="sigma-label" font-size="11" font-family="arial" fill="#000" x="374" y="235">COPB1</text><text data-label-target="1385" class="sigma-label" font-size="11" font-family="arial" fill="#000" x="483" y="208">CREB1</text><text data-label-target="1386" class="sigma-label" font-size="11" font-family="arial" fill="#000" x="744" y="535">ATF2</text><text data-label-target="1994" class="sigma-label" font-size="11" font-family="arial" fill="#000" x="536" y="691">ELAVL1</text><text data-label-target="2017" class="sigma-label" font-size="11" font-family="arial" fill="#000" x="336" y="685">CTTN</text><text data-label-target="2033" class="sigma-label" font-size="11" font-family="arial" fill="#000" x="130" y="438">EP300</text><text data-label-target="2353" class="sigma-label" font-size="11" font-family="arial" fill="#000" x="463" y="279">FOS</text><text data-label-target="2534" class="sigma-label" font-size="11" font-family="arial" fill="#000" x="720" y="468">FYN</text><text data-label-target="2547" class="sigma-label" font-size="11" font-family="arial" fill="#000" x="386" y="446">XRCC6</text><text data-label-target="2734" class="sigma-label" font-size="11" font-family="arial" fill="#000">GLG1</text><text data-label-target="2932" class="sigma-label" font-size="11" font-family="arial" fill="#000" x="241" y="639">GSK3B</text><text data-label-target="3065" class="sigma-label" font-size="11" font-family="arial" fill="#000" x="453" y="402">HDAC1</text><text data-label-target="3109" class="sigma-label" font-size="11" font-family="arial" fill="#000" x="588" y="190">HLA-DMB</text><text data-label-target="3113" class="sigma-label" font-size="11" font-family="arial" fill="#000">HLA-DPA1</text><text data-label-target="3115" class="sigma-label" font-size="11" font-family="arial" fill="#000" x="435" y="161">HLA-DPB1</text><text data-label-target="3117" class="sigma-label" font-size="11" font-family="arial" fill="#000">HLA-DQA1</text><text data-label-target="3118" class="sigma-label" font-size="11" font-family="arial" fill="#000">HLA-DQA2</text><text data-label-target="3122" class="sigma-label" font-size="11" font-family="arial" fill="#000" x="644" y="279">HLA-DRA</text><text data-label-target="3123" class="sigma-label" font-size="11" font-family="arial" fill="#000" x="737" y="300">HLA-DRB1</text><text data-label-target="3127" class="sigma-label" font-size="11" font-family="arial" fill="#000" x="795" y="272">HLA-DRB5</text><text data-label-target="3458" class="sigma-label" font-size="11" font-family="arial" fill="#000" x="262" y="752">IFNG</text><text data-label-target="3460" class="sigma-label" font-size="11" font-family="arial" fill="#000" x="556" y="647">IFNGR2</text><text data-label-target="3516" class="sigma-label" font-size="11" font-family="arial" fill="#000" x="289" y="564">RBPJ</text><text data-label-target="3655" class="sigma-label" font-size="11" font-family="arial" fill="#000" x="825" y="605">ITGA6</text><text data-label-target="3676" class="sigma-label" font-size="11" font-family="arial" fill="#000" x="500" y="847">ITGA4</text><text data-label-target="3696" class="sigma-label" font-size="11" font-family="arial" fill="#000">ITGB8</text><text data-label-target="3732" class="sigma-label" font-size="11" font-family="arial" fill="#000" x="753" y="220">CD82</text><text data-label-target="4094" class="sigma-label" font-size="11" font-family="arial" fill="#000" x="284" y="211">MAF</text><text data-label-target="4155" class="sigma-label" font-size="11" font-family="arial" fill="#000" x="790" y="492">MBP</text><text data-label-target="4193" class="sigma-label" font-size="11" font-family="arial" fill="#000" x="405" y="272">MDM2</text><text data-label-target="4261" class="sigma-label" font-size="11" font-family="arial" fill="#000" x="344" y="368">CIITA</text><text data-label-target="4301" class="sigma-label" font-size="11" font-family="arial" fill="#000" x="429" y="832">MLLT4</text><text data-label-target="4609" class="sigma-label" font-size="11" font-family="arial" fill="#000" x="342" y="649">MYC</text><text data-label-target="4691" class="sigma-label" font-size="11" font-family="arial" fill="#000" x="480" y="525">NCL</text><text data-label-target="4790" class="sigma-label" font-size="11" font-family="arial" fill="#000" x="232" y="381">NFKB1</text><text data-label-target="4799" class="sigma-label" font-size="11" font-family="arial" fill="#000" x="164" y="512">NFX1</text><text data-label-target="4851" class="sigma-label" font-size="11" font-family="arial" fill="#000" x="253" y="481">NOTCH1</text><text data-label-target="4904" class="sigma-label" font-size="11" font-family="arial" fill="#000" x="347" y="557">YBX1</text><text data-label-target="5594" class="sigma-label" font-size="11" font-family="arial" fill="#000" x="530" y="538">MAPK1</text><text data-label-target="6300" class="sigma-label" font-size="11" font-family="arial" fill="#000" x="744" y="751">MAPK12</text><text data-label-target="6382" class="sigma-label" font-size="11" font-family="arial" fill="#000" x="777" y="672">SDC1</text><text data-label-target="6385" class="sigma-label" font-size="11" font-family="arial" fill="#000" x="655" y="700">SDC4</text><text data-label-target="6778" class="sigma-label" font-size="11" font-family="arial" fill="#000" x="381" y="492">STAT6</text><text data-label-target="7013" class="sigma-label" font-size="11" font-family="arial" fill="#000" x="794" y="717">TERF1</text><text data-label-target="7082" class="sigma-label" font-size="11" font-family="arial" fill="#000" x="353" y="161">TJP1</text><text data-label-target="7280" class="sigma-label" font-size="11" font-family="arial" fill="#000" x="573" y="836">TUBB2A</text><text data-label-target="7314" class="sigma-label" font-size="11" font-family="arial" fill="#000" x="296" y="686">UBB</text><text data-label-target="7316" class="sigma-label" font-size="11" font-family="arial" fill="#000" x="647" y="447">UBC</text><text data-label-target="8452" class="sigma-label" font-size="11" font-family="arial" fill="#000" x="588" y="346">CUL3</text><text data-label-target="9369" class="sigma-label" font-size="11" font-family="arial" fill="#000" x="366" y="762">NRXN3</text><text data-label-target="9672" class="sigma-label" font-size="11" font-family="arial" fill="#000" x="612" y="814">SDC3</text><text data-label-target="10015" class="sigma-label" font-size="11" font-family="arial" fill="#000" x="665" y="561">PDCD6IP</text><text data-label-target="22938" class="sigma-label" font-size="11" font-family="arial" fill="#000" x="207" y="311">SNW1</text><text data-label-target="23451" class="sigma-label" font-size="11" font-family="arial" fill="#000" x="616" y="556">SF3B1</text><text data-label-target="23705" class="sigma-label" font-size="11" font-family="arial" fill="#000">CADM1</text><text data-label-target="25942" class="sigma-label" font-size="11" font-family="arial" fill="#000" x="388" y="341">SIN3A</text><text data-label-target="30011" class="sigma-label" font-size="11" font-family="arial" fill="#000" x="712" y="617">SH3KBP1</text><text data-label-target="51586" class="sigma-label" font-size="11" font-family="arial" fill="#000" x="694" y="207">MED15</text><text data-label-target="55534" class="sigma-label" font-size="11" font-family="arial" fill="#000" x="215" y="497">MAML3</text><text data-label-target="57142" class="sigma-label" font-size="11" font-family="arial" fill="#000" x="632" y="170">RTN4</text><text data-label-target="58494" class="sigma-label" font-size="11" font-family="arial" fill="#000" x="207" y="258">JAM2</text><text data-label-target="100506658" class="sigma-label" font-size="11" font-family="arial" fill="#000" x="543" y="197">OCLN</text></g></svg>